    <svg
      xmlns="http://www.w3.org/2000/svg"
      width="2260.911"
      height="900"
      version="1.1"
      viewBox="10 45.67 144.701 57.571"
    >
      <g transform="translate(0 6.632)">
        <g fill="#ff5a00" transform="translate(0 -.011)">
          <path d="M141.9 88.443l-5.927-6.647-5.875 6.647h-12.362l12.082-13.574-12.082-13.578h12.748l5.987 6.596 5.761-6.596h12.302l-12.022 13.521 12.189 13.631zm-47.902 0V45.67h23.738v9.534h-13.683v6.087h13.683v9.174h-13.683v8.42h13.683v9.558z"></path>
        </g>
        <path
          fill="#29007c"
          d="M83.98 45.659v17.505h-.111c-2.217-2.548-4.988-3.436-8.201-3.436-6.584 0-11.544 4.479-13.285 10.396-1.986-6.521-7.107-10.518-14.699-10.518-6.167 0-11.035 2.767-13.578 7.277v-5.604H21.361v-6.085h13.91V45.66H10v42.77h11.361V70.455h11.324a17.082 17.082 0 00-.519 4.229c0 8.918 6.815 15.185 15.516 15.185 7.314 0 12.138-3.437 14.687-9.694h-9.737c-1.316 1.883-2.316 2.439-4.949 2.439-3.052 0-5.686-2.664-5.686-5.818h19.826c.86 7.085 6.38 13.194 13.956 13.194 3.268 0 6.26-1.607 8.089-4.322h.11v2.77h10.017V45.662H83.98zM42.313 70.582c.633-2.718 2.74-4.494 5.37-4.494 2.896 0 4.896 1.72 5.421 4.494zm35.588 11.34c-3.691 0-5.985-3.438-5.985-7.03 0-3.84 1.996-7.53 5.985-7.53 4.139 0 5.788 3.692 5.788 7.53 0 3.638-1.746 7.03-5.788 7.03z"
        ></path>
      </g>
    </svg>