<?xml version="1.0" encoding="UTF-8" standalone="no"?>
<svg
   xmlns:dc="http://purl.org/dc/elements/1.1/"
   xmlns:cc="http://creativecommons.org/ns#"
   xmlns:rdf="http://www.w3.org/1999/02/22-rdf-syntax-ns#"
   xmlns:svg="http://www.w3.org/2000/svg"
   xmlns="http://www.w3.org/2000/svg"
   xmlns:sodipodi="http://sodipodi.sourceforge.net/DTD/sodipodi-0.dtd"
   xmlns:inkscape="http://www.inkscape.org/namespaces/inkscape"
   inkscape:version="1.0 (4035a4fb49, 2020-05-01)"
   sodipodi:docname="fedex.svg"
   id="svg10"
   version="1.1"
   viewBox="10 45.67 144.70099 57.571428"
   height="900"
   width="2260.9106">
  <metadata
     id="metadata16">
    <rdf:RDF>
      <cc:Work
         rdf:about="">
        <dc:format>image/svg+xml</dc:format>
        <dc:type
           rdf:resource="http://purl.org/dc/dcmitype/StillImage" />
        <dc:title></dc:title>
      </cc:Work>
    </rdf:RDF>
  </metadata>
  <defs
     id="defs14" />
  <sodipodi:namedview
     inkscape:current-layer="svg10"
     inkscape:window-maximized="1"
     inkscape:window-y="-11"
     inkscape:window-x="-11"
     inkscape:cy="97.166355"
     inkscape:cx="1654.9879"
     inkscape:zoom="0.21368767"
     fit-margin-bottom="0"
     fit-margin-right="0"
     fit-margin-left="0"
     fit-margin-top="0"
     showgrid="false"
     id="namedview12"
     inkscape:window-height="986"
     inkscape:window-width="1920"
     inkscape:pageshadow="2"
     inkscape:pageopacity="0"
     guidetolerance="10"
     gridtolerance="10"
     objecttolerance="10"
     borderopacity="1"
     bordercolor="#666666"
     pagecolor="#ffffff" />
  <g
     transform="translate(0,6.63213)"
     id="g21">
    <g
       fill="#ff5a00"
       id="g6"
       transform="translate(0,-0.0114158)">
      <path
         d="m 141.9,88.443 -5.927,-6.647 -5.875,6.647 H 117.736 L 129.818,74.869 117.736,61.291 h 12.748 l 5.987,6.596 5.761,-6.596 h 12.302 l -12.022,13.521 12.189,13.631 z m -47.902,0 V 45.67 h 23.738 v 9.534 h -13.683 v 6.087 h 13.683 v 9.174 h -13.683 v 8.42 h 13.683 v 9.558 z"
         id="path4" />
    </g>
    <path
       d="m 83.98,45.658584 v 17.505 h -0.111 c -2.217,-2.548 -4.988,-3.436 -8.201,-3.436 -6.584,0 -11.544,4.479 -13.285,10.396 -1.986,-6.521 -7.107,-10.518 -14.699,-10.518 -6.167,0 -11.035,2.767 -13.578,7.277 v -5.604 H 21.361 v -6.085 h 13.91 v -9.533 H 10 v 42.771 h 11.361 v -17.978 h 11.324 a 17.082,17.082 0 0 0 -0.519,4.229 c 0,8.918 6.815,15.185 15.516,15.185 7.314,0 12.138,-3.437 14.687,-9.694 h -9.737 c -1.316,1.883 -2.316,2.439 -4.949,2.439 -3.052,0 -5.686,-2.664 -5.686,-5.818 h 19.826 c 0.86,7.085 6.38,13.194 13.956,13.194 3.268,0 6.26,-1.607 8.089,-4.322 h 0.11 v 2.771 h 10.017 v -42.777 H 83.98 Z m -41.667,24.923 c 0.633,-2.718 2.74,-4.494 5.37,-4.494 2.896,0 4.896,1.721 5.421,4.494 z m 35.588,11.341 c -3.691,0 -5.985,-3.439 -5.985,-7.031 0,-3.84 1.996,-7.529 5.985,-7.529 4.139,0 5.788,3.691 5.788,7.529 0,3.638 -1.746,7.031 -5.788,7.031 z"
       fill="#29007c"
       id="path8" />
  </g>
</svg>
