   <svg
      xmlns="http://www.w3.org/2000/svg"
      width="2500"
      height="1624"
      viewBox="0.132 -1.834 37.493 26.185"
    >
      <path
        fill="#1d2953"
        d="M34.098 21.315c0 1.047-.37 1.484-1.045 1.484-.674 0-1.046-.437-1.046-1.484v-3.341c0-1.045.372-1.485 1.046-1.485.675 0 1.045.44 1.045 1.485v.237h1.89c-.033-1.941-.81-3.273-2.935-3.273-2.159 0-2.935 1.383-2.935 3.374v2.666c0 1.99.776 3.373 2.935 3.373 2.16 0 2.934-1.382 2.934-3.373v-.237h-1.889zM29.325 17.4c0-1.652-.995-2.462-2.75-2.462-1.771 0-2.935.995-3.037 2.834h1.891c.032-.777.217-1.283 1.079-1.283.624 0 .927.406.927 1.164v.54c-2.716 1.03-4.032 2.126-4.032 4.118 0 1.164.642 2.04 1.923 2.04.912 0 1.502-.303 2.21-.876.018.218.086.455.102.708h1.805c-.05-.304-.118-.675-.118-.962zm-1.89 4.555c-.32.456-.743.844-1.264.844-.575 0-.878-.236-.878-.825 0-.793.423-1.418 2.142-2.396zm-5.145-5.229c.557 0 .878.1 1.215.185v-1.973h-.389c-.894 0-1.686.455-2.141 1.232h-.034v-1.063h-1.805v9.076h1.889V17.94c0-.808.624-1.214 1.265-1.214"
      ></path>
      <path
        fill="#1d2953"
        d="M15.523 24.183h2.092v-10.36h2.025v-1.82H13.5v1.82h2.023z"
      ></path>
      <path
        fill="#fbcb07"
        d="M11.812 14.938c-1.097 0-1.502.405-2.294 1.079v-.91H7.729v9.076h1.89v-7.12c.439-.32.81-.574 1.215-.574.404 0 .674.203.674.658v7.036h1.89v-7.339c0-1.181-.59-1.906-1.586-1.906m-8.199-3.104c-2.193 0-3.206 1.4-3.206 3.12v6.276c0 1.721 1.013 3.121 3.206 3.121s3.205-1.4 3.205-3.12v-6.277c0-1.72-1.012-3.12-3.205-3.12m1.114 9.346c0 .91-.27 1.35-1.114 1.35-.843 0-1.114-.44-1.114-1.35v-6.175c0-.91.27-1.35 1.114-1.35.843 0 1.114.44 1.114 1.35zM.132 10.66c1.54-1.134 6.645-5.055 14.196-1.896V4.93C6.186 3.535 1.892 7.412.132 10.66"
      ></path>
      <path
        fill="#fbcb07"
        d="M5.468 4.048c-.748.51-1.581 1.255-2.02 1.83 5.3-3.318 11.34-1.713 11.388-1.699L26.22.656S14.09-1.834 5.47 4.048"
      ></path>
      <path
        fill="#fff"
        d="M27.53 1.683L15.682 5.338v3.49l9.635 4.151L37.11 8.605v-3.71z"
      ></path>
      <path
        fill="#fbcb07"
        d="M37.564 4.725s.008-.291-.314-.434c-.016-.007-9.676-3.161-9.676-3.161a.47.47 0 00-.283-.002L15.418 4.8a.494.494 0 00-.33.427v3.714c0 .188.112.358.287.43l9.804 4.124a.567.567 0 00.405.014l11.678-4.43a.47.47 0 00.302-.439zm-21.54 1.212l8.874 3.544v2.866L16.023 8.63zm9.347 2.725l-8.413-3.359 10.466-3.237 8.264 2.699zm11.257-.343l-10.793 4.094V9.487L36.628 5.41z"
      ></path>
      <path
        fill="#1d2953"
        d="M19.286 5.545l2.166-.725c.09-.031.132-.12.094-.198s-.143-.117-.233-.087l-2.167.727c-.09.03-.132.119-.094.197.04.078.143.116.234.086m.521.205c.04.078.143.118.233.087l2.166-.727c.09-.03.133-.118.094-.196-.038-.079-.143-.117-.233-.087l-2.167.728c-.09.03-.132.118-.093.196m4.543-.225l2.957-1.072c.121-.044.177-.165.127-.27-.054-.106-.193-.156-.315-.112l-2.964 1.066c-.125.045-.184.168-.129.275.053.108.198.157.324.113m.595.279c.054.104.195.155.32.11l2.933-1.07c.12-.045.177-.166.125-.272-.05-.104-.19-.153-.312-.11l-2.939 1.068c-.124.044-.181.167-.127.274m1.032.37c.054.106.197.155.32.11l2.905-1.072c.119-.043.175-.164.123-.268-.051-.104-.19-.154-.308-.11l-2.912 1.068c-.122.044-.18.167-.128.272m11.405 7.855a.624.624 0 01.182.446.607.607 0 01-.182.442.624.624 0 01-.894.002.622.622 0 01-.186-.444c0-.167.065-.326.187-.45.117-.119.271-.183.443-.183s.33.066.45.186m-.044.044a.566.566 0 00-.804-.003.564.564 0 00-.002.806.564.564 0 00.806-.002.548.548 0 00.165-.398.563.563 0 00-.165-.403m-.085.229c0 .1-.068.177-.176.19l.165.34h-.113l-.158-.326h-.184v.326h-.1V14.1h.265c.202 0 .3.06.3.202m-.465-.134v.27h.145c.154 0 .22-.028.22-.14 0-.092-.073-.13-.22-.13z"
      ></path>
    </svg>