    <svg
      xmlns="http://www.w3.org/2000/svg"
      width="52.242"
      height="61.979"
      viewBox="0 0 52.242 61.979"
    >
      <path
        fill="#301506"
        fillRule="evenodd"
        d="M38.962 567.66l.177-20.134 4.524-5.588 13.57-7.184 16.676 8.16 3.46 8.249-.356 26.698-12.595.354-13.127-2.128-11.974-6.919z"
        transform="matrix(1.25 0 0 -1.25 -47.372 728.76) translate(.36 .36)"
      ></path>
      <path
        fill="#fab80a"
        d="M58.392 582.21c-7.905 0-14.8-1.53-20.495-4.548v-24.128c0-5.077 1.908-9.323 5.516-12.28 3.35-2.748 13.71-7.277 14.98-7.827 1.204.524 11.687 5.123 14.984 7.827 3.606 2.956 5.514 7.202 5.514 12.28v24.128c-5.696 3.018-12.592 4.548-20.5 4.548zm11.705-4.672a87.01 87.01 0 006.91-.384v-23.62c0-4.54-1.648-8.206-4.826-10.823-2.839-2.338-11.4-6.174-13.788-7.227-2.421 1.067-11.004 4.951-13.792 7.226-3.159 2.572-4.822 6.326-4.822 10.823v13.801c9.079 8.326 20.103 10.337 30.317 10.204zm-11.17-10.998c-1.945 0-3.515-.435-4.807-1.269v-23.24h3.568v7.509c.356-.105.872-.203 1.604-.203 3.957 0 6.232 3.567 6.232 8.775 0 5.198-2.342 8.428-6.597 8.428zm12.188 0c-2.346-.068-4.799-1.768-4.784-4.649.006-1.897.532-3.315 3.472-5.04 1.569-.921 2.201-1.528 2.228-2.647.03-1.244-.83-1.994-2.138-1.99-1.138.01-2.498.641-3.409 1.452v-3.282c1.117-.666 2.51-1.107 3.919-1.107 3.524 0 5.097 2.49 5.165 4.77.067 2.08-.507 3.653-3.487 5.404-1.33.78-2.38 1.292-2.345 2.59.035 1.267 1.087 1.713 2.097 1.704 1.246-.011 2.45-.702 3.195-1.465v3.1c-.627.483-1.955 1.22-3.913 1.16zm-29.514-.361v-11.21c0-3.779 1.788-5.692 5.316-5.692 2.183 0 4.011.505 5.373 1.431v15.47h-3.56v-13.44c-.387-.266-.963-.436-1.687-.436-1.634 0-1.878 1.498-1.878 2.51v11.367h-3.564zm17.35-2.511c2.069 0 2.926-1.652 2.926-5.647 0-3.898-.98-5.781-3.033-5.781-.483 0-.902.12-1.157.215v10.955c.289.144.78.258 1.264.258z"
        transform="matrix(1.25 0 0 -1.25 -47.372 728.76) translate(.36 .36)"
      ></path>
    </svg>