<?xml version="1.0" encoding="UTF-8" standalone="no"?>
<svg
   xmlns:dc="http://purl.org/dc/elements/1.1/"
   xmlns:cc="http://creativecommons.org/ns#"
   xmlns:rdf="http://www.w3.org/1999/02/22-rdf-syntax-ns#"
   xmlns:svg="http://www.w3.org/2000/svg"
   xmlns="http://www.w3.org/2000/svg"
   xmlns:sodipodi="http://sodipodi.sourceforge.net/DTD/sodipodi-0.dtd"
   xmlns:inkscape="http://www.inkscape.org/namespaces/inkscape"
   width="2279.4102"
   height="900"
   viewBox="0 0 175.74799 69.39216"
   version="1.1"
   id="svg16"
   sodipodi:docname="usps.svg"
   inkscape:version="1.0 (4035a4fb49, 2020-05-01)">
  <metadata
     id="metadata22">
    <rdf:RDF>
      <cc:Work
         rdf:about="">
        <dc:format>image/svg+xml</dc:format>
        <dc:type
           rdf:resource="http://purl.org/dc/dcmitype/StillImage" />
        <dc:title></dc:title>
      </cc:Work>
    </rdf:RDF>
  </metadata>
  <defs
     id="defs20" />
  <sodipodi:namedview
     inkscape:document-rotation="0"
     pagecolor="#ffffff"
     bordercolor="#666666"
     borderopacity="1"
     objecttolerance="10"
     gridtolerance="10"
     guidetolerance="10"
     inkscape:pageopacity="0"
     inkscape:pageshadow="2"
     inkscape:window-width="1920"
     inkscape:window-height="986"
     id="namedview18"
     showgrid="false"
     fit-margin-top="0"
     fit-margin-left="0"
     fit-margin-right="0"
     fit-margin-bottom="0"
     inkscape:zoom="0.16"
     inkscape:cx="-26.663934"
     inkscape:cy="459.35105"
     inkscape:window-x="-11"
     inkscape:window-y="-11"
     inkscape:window-maximized="1"
     inkscape:current-layer="g14" />
  <g
     fill-rule="evenodd"
     clip-rule="evenodd"
     id="g14"
     transform="translate(-8.504,-81.706)">
    <g
       transform="translate(0,20.02358)"
       id="g17">
      <path
         id="path4"
         d="m 14.739,81.854 h 0.22 l 0.368,0.072 0.44,0.074 1.173,0.294 1.614,0.292 0.881,0.222 0.954,0.219 1.027,0.147 1.026,0.294 1.101,0.146 1.1,0.294 3.521,0.659 1.101,0.294 1.174,0.22 1.025,0.22 1.102,0.22 1.026,0.22 1.028,0.147 0.88,0.221 0.881,0.146 0.733,0.219 0.66,0.148 0.586,0.072 0.514,0.074 0.368,0.074 0.219,0.073 h 0.146 l 0.955,0.22 0.88,0.147 0.734,0.22 0.586,0.146 0.588,0.221 0.44,0.147 0.586,0.293 0.22,0.147 0.367,0.366 v 0.074 l 0.075,0.073 v 0.073 h 3.152 l 0.295,0.074 h 0.293 l 0.22,0.073 h 0.22 l 0.22,0.074 0.587,0.292 0.073,0.148 0.514,0.806 0.147,0.953 -0.147,1.175 -0.366,1.1 -0.441,1.1 -0.441,0.881 -0.366,0.587 -0.146,0.22 -0.147,0.075 -0.367,0.144 -0.514,0.221 -0.734,0.293 -0.807,0.295 -1.026,0.439 -1.101,0.44 -1.247,0.441 -1.394,0.586 -1.468,0.514 -1.465,0.586 -3.228,1.322 -1.688,0.66 -1.688,0.588 -1.686,0.73 -1.76,0.662 -1.688,0.586 -1.615,0.735 -1.686,0.588 -1.541,0.586 -2.935,1.173 -1.32,0.514 -1.247,0.44 -1.1,0.439 -0.953,0.367 -0.808,0.367 -0.659,0.221 -0.514,0.221 -0.294,0.072 -0.074,0.072 H 50.025 L 56.187,81.707 H 14.739 Z"
         fill="#284e80" />
      <path
         id="path6"
         d="m 43.13,91.317 -0.221,0.074 -1.467,0.292 h -0.367 l -0.294,0.073 h -0.292 l -0.442,0.075 -0.219,0.073 -0.147,0.073 -0.074,0.148 v 0.145 l 0.148,0.147 h 0.292 l 0.294,0.073 h 0.734 l 0.44,-0.073 h 0.44 l 1.028,-0.147 h 0.514 l 0.586,-0.074 0.513,-0.071 0.442,-0.075 0.512,-0.073 h 1.981 l 0.219,0.073 0.148,0.075 0.146,0.219 v 0.293 l -0.073,0.293 -0.073,0.367 -0.148,0.44 -0.219,0.514 -0.147,0.514 -0.073,0.293 0.146,0.147 0.147,-0.074 0.294,-0.294 0.146,-0.219 0.22,-0.367 0.221,-0.44 0.22,-0.514 0.219,-0.439 0.147,-0.441 0.073,-0.367 v -0.44 l -0.146,-0.367 -0.22,-0.22 -0.293,-0.22 -0.367,-0.147 -0.441,-0.073 -0.512,-0.074 h -3.082 l -0.073,0.074 h -0.074 l -0.146,0.073 -0.148,0.294 -0.145,0.073 -0.147,0.147 z"
         fill="#284e80" />
      <path
         id="path8"
         d="m 13.346,88.456 -4.842,22.446 0.221,-0.072 0.44,-0.293 0.733,-0.293 0.955,-0.514 1.099,-0.513 1.248,-0.66 1.467,-0.661 1.394,-0.734 1.467,-0.66 1.393,-0.734 1.394,-0.661 1.32,-0.66 1.101,-0.588 0.953,-0.439 0.734,-0.365 0.514,-0.221 0.733,-0.367 0.661,-0.367 0.806,-0.368 0.807,-0.439 0.734,-0.367 0.88,-0.367 0.807,-0.44 0.88,-0.365 0.881,-0.442 4.401,-1.833 1.981,-0.661 0.293,-0.074 0.293,-0.144 0.367,-0.075 1.32,-0.44 1.542,-0.44 0.513,-0.074 1.54,-0.44 0.881,-0.146 0.293,-0.074 0.22,-0.074 h 0.221 l 0.219,-0.072 0.147,-0.147 h 0.074 v -0.075 l -0.148,-0.292 -0.22,-0.073 -0.293,-0.074 h -0.293 l -0.439,-0.072 h -0.442 l -0.513,0.072 -0.88,0.074 -0.954,0.146 -1.027,0.219 -1.101,0.222 -1.099,0.293 -1.174,0.367 -1.101,0.367 -1.173,0.366 -1.1,0.442 -1.102,0.365 -1.026,0.367 -0.953,0.367 -0.882,0.44 -0.733,0.293 -0.66,0.295 -0.514,0.293 -2.787,-8.657 H 43.57 l 0.072,-0.366 -0.292,-0.368 -0.441,-0.22 -0.66,-0.22 -0.734,-0.22 -1.908,-0.293 -3.08,-0.22 z"
         fill="#284e80" />
      <path
         id="path10"
         d="M 184.072,96.986 H 59.782 l 0.178,-1.867 h 124.292 z"
         fill="#ca4256" />
      <path
         id="path12"
         d="m 65.43,92.858 -0.954,-0.074 -0.953,-0.22 -0.734,-0.22 -0.66,-0.44 -0.439,-0.513 -0.294,-0.662 -0.074,-0.732 0.074,-0.881 0.367,-1.614 0.293,-1.467 0.294,-1.248 0.22,-1.026 0.147,-0.88 0.146,-0.66 0.074,-0.366 0.072,-0.147 H 65.43 L 65.356,82 l -0.146,0.734 -0.294,1.1 -0.22,1.248 -0.293,1.248 -0.366,1.833 -0.074,0.22 -0.072,0.587 v 1.028 l 0.146,0.366 0.293,0.293 0.366,0.22 0.514,0.146 0.587,0.073 0.66,-0.073 0.514,-0.073 0.513,-0.221 0.367,-0.366 0.294,-0.366 0.294,-0.442 0.44,-1.173 0.072,-0.587 0.22,-0.88 0.222,-1.1 0.22,-1.174 0.292,-1.102 0.148,-0.953 0.146,-0.661 0.074,-0.219 h 2.421 l -0.44,2.127 -0.22,1.102 -0.147,0.366 v 0.146 l -0.074,0.441 -0.22,1.1 -0.512,2.128 -0.074,0.439 -0.22,0.442 -0.148,0.366 -0.22,0.366 -0.292,0.367 -0.587,0.586 -0.368,0.221 -0.439,0.221 -0.367,0.22 -0.439,0.146 -0.441,0.074 -0.441,0.146 -1.026,0.148 z m 112.824,-9.39 h -3.447 l -0.586,0.146 -0.439,0.294 -0.074,0.146 -0.074,0.221 v 0.293 l 0.074,0.294 0.219,0.294 0.221,0.366 0.66,0.66 0.439,0.293 0.367,0.294 0.441,0.367 0.732,0.734 0.295,0.367 0.439,0.88 0.072,0.439 -0.072,0.514 -0.146,0.515 -0.221,0.513 -0.367,0.44 -0.514,0.367 -0.586,0.292 -0.734,0.22 -0.953,0.147 -1.027,0.073 h -3.74 l 0.439,-1.76 h 3.961 l 0.367,-0.074 0.293,-0.074 0.221,-0.146 0.221,-0.294 0.145,-0.292 -0.072,-0.588 -0.439,-0.587 -0.734,-0.586 -0.734,-0.66 -0.805,-0.733 -0.662,-0.808 -0.439,-0.808 -0.072,-0.953 0.145,-0.513 0.295,-0.586 0.293,-0.44 0.514,-0.367 0.66,-0.293 0.66,-0.22 0.881,-0.147 h 4.254 z m -8.51,0 h -5.5 l -0.662,2.861 h 4.844 l -0.367,1.54 h -4.842 l -0.588,3.008 h 5.502 l -0.367,1.76 h -7.922 l 2.348,-10.93 h 7.924 z m -9.537,0 h -3.373 l -1.98,9.169 h -2.42 l 1.98,-9.169 h -3.449 l 0.441,-1.761 h 9.17 z m -16.871,9.169 0.955,-1.76 h 3.447 l -0.953,-6.969 -4.842,8.729 h -2.422 l 6.309,-10.93 h 2.861 l 1.688,10.93 z m -0.44,-9.169 h -3.375 l -1.98,9.169 h -2.422 l 1.98,-9.169 h -3.445 l 0.439,-1.761 h 9.168 z m -10.49,0 h -3.375 l -0.367,0.072 -0.293,0.074 -0.221,0.147 -0.293,0.292 v 0.514 l 0.074,0.294 0.146,0.294 0.293,0.366 0.66,0.66 0.367,0.293 0.441,0.294 1.098,1.101 0.295,0.367 0.293,0.44 0.146,0.44 0.074,0.439 v 0.514 l -0.148,0.515 -0.219,0.513 -0.441,0.44 -0.439,0.367 -0.658,0.292 -0.734,0.22 -0.881,0.147 -1.1,0.073 h -3.668 l 0.365,-1.76 h 4.035 l 0.367,-0.073 0.293,-0.074 0.221,-0.146 0.219,-0.294 0.074,-0.292 -0.074,-0.588 -0.439,-0.587 -0.66,-0.586 -0.732,-0.66 -0.809,-0.733 -0.66,-0.808 -0.439,-0.808 -0.074,-0.953 0.148,-0.513 0.219,-0.586 0.367,-0.44 0.514,-0.367 0.588,-0.293 0.732,-0.22 0.881,-0.147 h 4.254 z m -22.154,3.667 -1.102,5.502 h 4.916 l 0.586,-0.073 h 0.588 l 1.025,-0.294 0.588,-0.22 0.514,-0.294 0.881,-0.586 0.879,-0.881 0.734,-1.026 0.293,-0.587 0.221,-0.586 0.146,-0.661 0.074,-0.293 0.072,-0.44 0.146,-1.026 -0.072,-0.954 -0.221,-0.807 -0.367,-0.733 -0.586,-0.661 -0.732,-0.44 -0.955,-0.293 -1.1,-0.074 h -5.355 z m 7.996,0 -0.074,0.367 -0.221,0.44 -0.146,0.367 -0.145,0.44 -0.221,0.292 -0.293,0.368 -0.588,0.588 -0.734,0.439 -0.365,0.147 -0.439,0.146 -0.883,0.147 h -2.199 l 0.732,-3.742 0.809,-3.667 h 3.154 l 0.586,0.22 0.441,0.293 0.365,0.439 0.221,0.44 0.146,0.586 v 1.174 l -0.146,0.44 z m -8.949,-3.667 h -5.43 l -0.66,2.861 h 4.77 l -0.295,1.54 h -4.84 l -0.588,3.008 h 5.428 l -0.293,1.76 h -7.922 l 2.348,-10.93 h 7.848 z m -9.463,0 h -3.448 l -1.981,9.169 H 92.06 l 1.98,-9.169 h -3.447 l 0.366,-1.761 h 9.171 z M 86.998,92.637 H 84.65 l 2.274,-10.93 h 2.42 z m -4.695,0 h -3.008 l -2.714,-8.142 h -0.073 l -1.687,8.142 h -2.127 l 2.347,-10.93 h 3.081 l 2.642,8.217 1.688,-8.217 h 2.2 z m -20.1,14.084 H 61.91 l -0.147,-0.072 h -0.44 l -0.146,-0.072 h -0.146 l -0.147,-1.541 h 0.587 l 0.073,0.072 h 0.441 l 0.586,-0.072 0.88,-0.293 0.294,-0.295 0.439,-0.588 0.147,-0.291 v -0.295 l 0.073,-0.367 v -0.365 l -0.073,-0.295 -0.147,-0.219 -0.439,-0.295 h -0.294 l -0.292,-0.072 h -1.981 l -1.981,9.17 h -2.421 l 2.349,-10.932 h 5.208 l 0.807,0.074 0.587,0.295 0.513,0.365 0.294,0.514 0.146,0.514 0.074,0.586 v 0.588 l -0.074,0.514 -0.22,0.734 -0.367,0.66 -0.44,0.586 -0.586,0.514 -0.588,0.367 -1.468,0.439 z m 120.746,-5.061 h -5.574 l -0.588,2.861 h 4.842 l -0.367,1.613 h -4.84 l -0.588,3.008 h 5.502 l -0.367,1.688 h -7.922 l 2.348,-10.932 h 7.922 z m -9.756,0.147 -0.295,-0.074 h -0.219 l -0.586,-0.145 -0.369,-0.074 h -0.365 l -0.295,-0.074 h -0.439 l -0.807,0.074 -0.734,0.219 -0.732,0.295 -0.66,0.514 -0.514,0.514 -0.514,0.66 -0.293,0.807 -0.293,0.879 -0.148,0.881 0.074,0.807 0.219,0.66 0.295,0.514 0.439,0.441 0.588,0.367 0.66,0.219 0.732,0.072 h 0.439 l 0.441,-0.072 h 0.367 l 0.734,-0.146 h 0.291 l 0.369,-0.072 0.293,-0.074 -0.588,1.834 -0.293,0.072 h -0.367 l -0.293,0.074 h -0.367 l -0.293,0.072 h -1.688 l -1.174,-0.146 -0.514,-0.145 -0.514,-0.221 -0.439,-0.221 -0.439,-0.293 -0.367,-0.293 -0.367,-0.369 -0.221,-0.439 -0.219,-0.514 -0.221,-0.439 -0.074,-0.586 v -0.588 l 0.074,-0.66 0.072,-0.734 0.221,-0.658 0.221,-0.734 0.586,-1.174 0.367,-0.514 0.881,-0.881 0.514,-0.367 1.025,-0.586 1.174,-0.441 0.588,-0.146 0.586,-0.072 0.66,-0.072 h 1.541 l 0.293,0.072 h 0.295 l 0.293,0.072 h 0.293 l 0.293,0.074 z m -12.103,9.023 h -2.422 l 2.348,-10.932 h 2.42 z m -7.778,0 h -2.861 l -1.613,-10.932 h 2.422 l 1.1,8.805 4.842,-8.805 h 2.348 z m -8.876,-4.695 1.762,4.695 h -2.643 l -1.98,-5.941 h 1.396 l 0.439,-0.074 0.439,-0.146 0.367,-0.221 0.293,-0.219 0.293,-0.295 0.146,-0.365 0.148,-0.439 0.072,-0.295 v -0.293 l -0.146,-0.441 -0.146,-0.146 -0.293,-0.146 -0.734,-0.146 h -2.201 l -1.98,9.17 h -2.42 l 2.348,-10.932 h 5.061 l 0.732,0.074 0.662,0.146 0.514,0.221 0.367,0.293 0.293,0.367 0.221,0.514 0.072,0.586 v 0.586 l -0.072,0.734 -0.221,0.662 -0.293,0.586 -0.367,0.439 -0.441,0.439 -0.586,0.295 -0.514,0.221 z m -6.967,-4.475 h -5.504 l -0.586,2.861 h 4.768 l -0.293,1.613 h -4.842 l -0.586,3.008 h 5.502 l -0.367,1.688 h -7.996 l 2.348,-10.932 h 7.922 z m -9.979,0 h -3.08 l -0.734,0.146 -0.293,0.074 -0.146,0.146 -0.221,0.146 -0.146,0.293 v 0.367 l 0.074,0.295 0.146,0.291 0.293,0.295 0.293,0.367 0.367,0.291 0.367,0.369 0.439,0.293 0.367,0.365 0.439,0.295 0.295,0.439 0.293,0.367 0.293,0.439 0.148,0.367 0.07,0.514 v 0.439 l -0.145,0.588 -0.221,0.439 -0.881,0.881 -0.586,0.293 -0.809,0.221 -0.879,0.146 h -4.768 l 0.367,-1.688 h 4.033 l 0.367,-0.072 0.293,-0.148 0.221,-0.146 0.219,-0.219 0.146,-0.295 -0.146,-0.586 -0.439,-0.588 -0.66,-0.658 -0.732,-0.662 -0.809,-0.66 -0.66,-0.807 -0.439,-0.881 -0.074,-0.879 0.146,-0.588 0.221,-0.514 0.367,-0.439 0.514,-0.367 0.586,-0.293 0.734,-0.221 0.881,-0.146 1.025,-0.074 h 3.229 z m -13.056,9.17 h -7.41 l 2.275,-10.932 h 2.494 l -1.982,9.244 h 4.988 z m -15.7,0 0.953,-1.688 h 3.447 l -1.025,-7.043 -4.768,8.73 H 94.92 l 6.236,-10.932 h 2.934 l 1.688,10.932 h -7.044 z m -0.439,-9.17 h -3.448 l -1.981,9.17 h -2.421 l 1.982,-9.17 h -3.375 l 0.368,-1.762 h 9.169 z m -10.49,0 h -3.082 l -0.733,0.146 -0.22,0.074 -0.22,0.146 -0.292,0.293 -0.074,0.146 v 0.367 l 0.074,0.295 0.439,0.586 0.292,0.367 0.367,0.291 0.366,0.369 0.441,0.293 0.44,0.365 0.366,0.295 0.294,0.439 0.367,0.367 0.22,0.439 0.147,0.367 0.146,0.514 -0.073,0.439 -0.147,0.588 -0.22,0.439 -0.366,0.441 -0.441,0.439 -0.66,0.293 -0.806,0.221 -0.881,0.146 h -4.694 l 0.293,-1.688 h 4.109 l 0.292,-0.072 0.587,-0.295 0.146,-0.219 0.147,-0.295 -0.074,-0.586 -0.44,-0.588 -0.659,-0.658 -0.808,-0.662 -0.734,-0.66 -0.66,-0.807 -0.44,-0.881 -0.147,-0.879 0.147,-0.588 0.292,-0.514 0.37,-0.433 0.439,-0.367 0.587,-0.293 0.806,-0.221 0.88,-0.146 0.953,-0.074 h 3.229 z m -20.394,3.74 -0.148,1.176 0.221,1.539 0.441,0.881 0.292,0.439 0.661,0.66 0.439,0.293 0.44,0.221 0.514,0.221 0.586,0.146 0.587,0.072 h 1.248 l 1.173,-0.146 0.586,-0.145 0.587,-0.221 0.514,-0.221 0.44,-0.293 0.514,-0.293 0.44,-0.369 0.366,-0.439 0.441,-0.439 0.292,-0.514 0.587,-1.174 0.22,-0.66 0.146,-0.734 0.147,-0.586 v -1.1 l -0.074,-0.586 -0.073,-0.514 -0.44,-0.883 -0.583,-0.731 -0.368,-0.293 -0.44,-0.293 -0.44,-0.221 -0.587,-0.221 -0.514,-0.146 -0.586,-0.072 h -1.248 l -1.173,0.145 -0.586,0.146 -0.587,0.223 -0.514,0.219 -0.439,0.293 -0.514,0.367 -0.44,0.293 -0.44,0.441 -0.367,0.514 -0.367,0.439 -0.293,0.586 -0.22,0.588 -0.22,0.734 z m 9.169,0 -0.22,0.881 -0.366,0.807 -0.368,0.66 -0.512,0.514 -0.587,0.441 -0.661,0.367 -0.66,0.219 -0.808,0.072 -0.808,-0.072 -0.586,-0.293 -0.514,-0.367 -0.366,-0.514 -0.221,-0.514 -0.146,-0.732 v -0.734 l 0.146,-0.734 0.221,-0.879 0.366,-0.807 0.367,-0.66 0.514,-0.514 0.586,-0.514 0.661,-0.295 0.66,-0.219 0.807,-0.074 0.734,0.148 0.66,0.145 0.514,0.441 0.366,0.441 0.22,0.586 0.147,0.658 v 0.734 z" />
    </g>
  </g>
</svg>
