   <svg
      xmlns="http://www.w3.org/2000/svg"
      width="2279.41"
      height="900"
      version="1.1"
      viewBox="0 0 175.748 69.392"
    >
      <g
        fillRule="evenodd"
        clipRule="evenodd"
        transform="translate(-8.504 -81.706)"
      >
        <g transform="translate(0 20.024)">
          <path
            fill="#284e80"
            d="M14.739 81.854h.22l.368.072.44.074 1.173.294 1.614.292.881.222.954.219 1.027.147 1.026.294 1.101.146 1.1.294 3.521.659 1.101.294 1.174.22 1.025.22 1.102.22 1.026.22 1.028.147.88.221.881.146.733.219.66.148.586.072.514.074.368.074.219.073h.146l.955.22.88.147.734.22.586.146.588.221.44.147.586.293.22.147.367.366v.074l.075.073v.073h3.152l.295.074h.293l.22.073h.22l.22.074.587.292.073.148.514.806.147.953-.147 1.175-.366 1.1-.441 1.1-.441.881-.366.587-.146.22-.147.075-.367.144-.514.221-.734.293-.807.295-1.026.439-1.101.44-1.247.441-1.394.586-1.468.514-1.465.586-3.228 1.322-1.688.66-1.688.588-1.686.73-1.76.662-1.688.586-1.615.735-1.686.588-1.541.586-2.935 1.173-1.32.514-1.247.44-1.1.439-.953.367-.808.367-.659.221-.514.221-.294.072-.074.072h37.927l6.162-29.195H14.739z"
          ></path>
          <path
            fill="#284e80"
            d="M43.13 91.317l-.221.074-1.467.292h-.367l-.294.073h-.292l-.442.075-.219.073-.147.073-.074.148v.145l.148.147h.292l.294.073h.734l.44-.073h.44l1.028-.147h.514l.586-.074.513-.071.442-.075.512-.073h1.981l.219.073.148.075.146.219v.293l-.073.293-.073.367-.148.44-.219.514-.147.514-.073.293.146.147.147-.074.294-.294.146-.219.22-.367.221-.44.22-.514.219-.439.147-.441.073-.367v-.44l-.146-.367-.22-.22-.293-.22-.367-.147-.441-.073-.512-.074h-3.082l-.073.074h-.074l-.146.073-.148.294-.145.073-.147.147z"
          ></path>
          <path
            fill="#284e80"
            d="M13.346 88.456l-4.842 22.446.221-.072.44-.293.733-.293.955-.514 1.099-.513 1.248-.66 1.467-.661 1.394-.734 1.467-.66 1.393-.734 1.394-.661 1.32-.66 1.101-.588.953-.439.734-.365.514-.221.733-.367.661-.367.806-.368.807-.439.734-.367.88-.367.807-.44.88-.365.881-.442 4.401-1.833 1.981-.661.293-.074.293-.144.367-.075 1.32-.44 1.542-.44.513-.074 1.54-.44.881-.146.293-.074.22-.074h.221l.219-.072.147-.147h.074v-.075l-.148-.292-.22-.073-.293-.074h-.293l-.439-.072h-.442l-.513.072-.88.074-.954.146-1.027.219-1.101.222-1.099.293-1.174.367-1.101.367-1.173.366-1.1.442-1.102.365-1.026.367-.953.367-.882.44-.733.293-.66.295-.514.293-2.787-8.657H43.57l.072-.366-.292-.368-.441-.22-.66-.22-.734-.22-1.908-.293-3.08-.22z"
          ></path>
          <path
            fill="#ca4256"
            d="M184.072 96.986H59.782l.178-1.867h124.292z"
          ></path>
          <path d="M65.43 92.858l-.954-.074-.953-.22-.734-.22-.66-.44-.439-.513-.294-.662-.074-.732.074-.881.367-1.614.293-1.467.294-1.248.22-1.026.147-.88.146-.66.074-.366.072-.147h2.421l-.074.292-.146.734-.294 1.1-.22 1.248-.293 1.248-.366 1.833-.074.22-.072.587v1.028l.146.366.293.293.366.22.514.146.587.073.66-.073.514-.073.513-.221.367-.366.294-.366.294-.442.44-1.173.072-.587.22-.88.222-1.1.22-1.174.292-1.102.148-.953.146-.661.074-.219h2.421l-.44 2.127-.22 1.102-.147.366v.146l-.074.441-.22 1.1-.512 2.128-.074.439-.22.442-.148.366-.22.366-.292.367-.587.586-.368.221-.439.221-.367.22-.439.146-.441.074-.441.146-1.026.148zm112.824-9.39h-3.447l-.586.146-.439.294-.074.146-.074.221v.293l.074.294.219.294.221.366.66.66.439.293.367.294.441.367.732.734.295.367.439.88.072.439-.072.514-.146.515-.221.513-.367.44-.514.367-.586.292-.734.22-.953.147-1.027.073h-3.74l.439-1.76h3.961l.367-.074.293-.074.221-.146.221-.294.145-.292-.072-.588-.439-.587-.734-.586-.734-.66-.805-.733-.662-.808-.439-.808-.072-.953.145-.513.295-.586.293-.44.514-.367.66-.293.66-.22.881-.147h4.254zm-8.51 0h-5.5l-.662 2.861h4.844l-.367 1.54h-4.842l-.588 3.008h5.502l-.367 1.76h-7.922l2.348-10.93h7.924zm-9.537 0h-3.373l-1.98 9.169h-2.42l1.98-9.169h-3.449l.441-1.761h9.17zm-16.871 9.169l.955-1.76h3.447l-.953-6.969-4.842 8.729h-2.422l6.309-10.93h2.861l1.688 10.93zm-.44-9.169h-3.375l-1.98 9.169h-2.422l1.98-9.169h-3.445l.439-1.761h9.168zm-10.49 0h-3.375l-.367.072-.293.074-.221.147-.293.292v.514l.074.294.146.294.293.366.66.66.367.293.441.294 1.098 1.101.295.367.293.44.146.44.074.439v.514l-.148.515-.219.513-.441.44-.439.367-.658.292-.734.22-.881.147-1.1.073h-3.668l.365-1.76h4.035l.367-.073.293-.074.221-.146.219-.294.074-.292-.074-.588-.439-.587-.66-.586-.732-.66-.809-.733-.66-.808-.439-.808-.074-.953.148-.513.219-.586.367-.44.514-.367.588-.293.732-.22.881-.147h4.254zm-22.154 3.667l-1.102 5.502h4.916l.586-.073h.588l1.025-.294.588-.22.514-.294.881-.586.879-.881.734-1.026.293-.587.221-.586.146-.661.074-.293.072-.44.146-1.026-.072-.954-.221-.807-.367-.733-.586-.661-.732-.44-.955-.293-1.1-.074h-5.355zm7.996 0l-.074.367-.221.44-.146.367-.145.44-.221.292-.293.368-.588.588-.734.439-.365.147-.439.146-.883.147h-2.199l.732-3.742.809-3.667h3.154l.586.22.441.293.365.439.221.44.146.586v1.174l-.146.44zm-8.949-3.667h-5.43l-.66 2.861h4.77l-.295 1.54h-4.84l-.588 3.008h5.428l-.293 1.76h-7.922l2.348-10.93h7.848zm-9.463 0h-3.448l-1.981 9.169H92.06l1.98-9.169h-3.447l.366-1.761h9.171zm-12.838 9.169H84.65l2.274-10.93h2.42zm-4.695 0h-3.008l-2.714-8.142h-.073l-1.687 8.142h-2.127l2.347-10.93h3.081l2.642 8.217 1.688-8.217h2.2zm-20.1 14.084h-.293l-.147-.072h-.44l-.146-.072h-.146l-.147-1.541h.587l.073.072h.441l.586-.072.88-.293.294-.295.439-.588.147-.291v-.295l.073-.367v-.365l-.073-.295-.147-.219-.439-.295h-.294l-.292-.072h-1.981l-1.981 9.17h-2.421l2.349-10.932h5.208l.807.074.587.295.513.365.294.514.146.514.074.586v.588l-.074.514-.22.734-.367.66-.44.586-.586.514-.588.367-1.468.439zm120.746-5.061h-5.574l-.588 2.861h4.842l-.367 1.613h-4.84l-.588 3.008h5.502l-.367 1.688h-7.922l2.348-10.932h7.922zm-9.756.147l-.295-.074h-.219l-.586-.145-.369-.074h-.365l-.295-.074h-.439l-.807.074-.734.219-.732.295-.66.514-.514.514-.514.66-.293.807-.293.879-.148.881.074.807.219.66.295.514.439.441.588.367.66.219.732.072h.439l.441-.072h.367l.734-.146h.291l.369-.072.293-.074-.588 1.834-.293.072h-.367l-.293.074h-.367l-.293.072h-1.688l-1.174-.146-.514-.145-.514-.221-.439-.221-.439-.293-.367-.293-.367-.369-.221-.439-.219-.514-.221-.439-.074-.586v-.588l.074-.66.072-.734.221-.658.221-.734.586-1.174.367-.514.881-.881.514-.367 1.025-.586 1.174-.441.588-.146.586-.072.66-.072h1.541l.293.072h.295l.293.072h.293l.293.074zm-12.103 9.023h-2.422l2.348-10.932h2.42zm-7.778 0h-2.861l-1.613-10.932h2.422l1.1 8.805 4.842-8.805h2.348zm-8.876-4.695l1.762 4.695h-2.643l-1.98-5.941h1.396l.439-.074.439-.146.367-.221.293-.219.293-.295.146-.365.148-.439.072-.295v-.293l-.146-.441-.146-.146-.293-.146-.734-.146h-2.201l-1.98 9.17h-2.42l2.348-10.932h5.061l.732.074.662.146.514.221.367.293.293.367.221.514.072.586v.586l-.072.734-.221.662-.293.586-.367.439-.441.439-.586.295-.514.221zm-6.967-4.475h-5.504l-.586 2.861h4.768l-.293 1.613h-4.842l-.586 3.008h5.502l-.367 1.688h-7.996l2.348-10.932h7.922zm-9.979 0h-3.08l-.734.146-.293.074-.146.146-.221.146-.146.293v.367l.074.295.146.291.293.295.293.367.367.291.367.369.439.293.367.365.439.295.295.439.293.367.293.439.148.367.07.514v.439l-.145.588-.221.439-.881.881-.586.293-.809.221-.879.146h-4.768l.367-1.688h4.033l.367-.072.293-.148.221-.146.219-.219.146-.295-.146-.586-.439-.588-.66-.658-.732-.662-.809-.66-.66-.807-.439-.881-.074-.879.146-.588.221-.514.367-.439.514-.367.586-.293.734-.221.881-.146 1.025-.074h3.229zm-13.056 9.17h-7.41l2.275-10.932h2.494l-1.982 9.244h4.988zm-15.7 0l.953-1.688h3.447l-1.025-7.043-4.768 8.73H94.92l6.236-10.932h2.934l1.688 10.932h-7.044zm-.439-9.17h-3.448l-1.981 9.17h-2.421l1.982-9.17h-3.375l.368-1.762h9.169zm-10.49 0h-3.082l-.733.146-.22.074-.22.146-.292.293-.074.146v.367l.074.295.439.586.292.367.367.291.366.369.441.293.44.365.366.295.294.439.367.367.22.439.147.367.146.514-.073.439-.147.588-.22.439-.366.441-.441.439-.66.293-.806.221-.881.146h-4.694l.293-1.688h4.109l.292-.072.587-.295.146-.219.147-.295-.074-.586-.44-.588-.659-.658-.808-.662-.734-.66-.66-.807-.44-.881-.147-.879.147-.588.292-.514.37-.433.439-.367.587-.293.806-.221.88-.146.953-.074h3.229zm-20.394 3.74l-.148 1.176.221 1.539.441.881.292.439.661.66.439.293.44.221.514.221.586.146.587.072h1.248l1.173-.146.586-.145.587-.221.514-.221.44-.293.514-.293.44-.369.366-.439.441-.439.292-.514.587-1.174.22-.66.146-.734.147-.586v-1.1l-.074-.586-.073-.514-.44-.883-.583-.731-.368-.293-.44-.293-.44-.221-.587-.221-.514-.146-.586-.072h-1.248l-1.173.145-.586.146-.587.223-.514.219-.439.293-.514.367-.44.293-.44.441-.367.514-.367.439-.293.586-.22.588-.22.734zm9.169 0l-.22.881-.366.807-.368.66-.512.514-.587.441-.661.367-.66.219-.808.072-.808-.072-.586-.293-.514-.367-.366-.514-.221-.514-.146-.732v-.734l.146-.734.221-.879.366-.807.367-.66.514-.514.586-.514.661-.295.66-.219.807-.074.734.148.66.145.514.441.366.441.22.586.147.658v.734z"></path>
        </g>
      </g>
    </svg>